Coordinates
version=1
nRows=20
nColumns=34
inDegrees=yes

Units are S.I. units (second, meters, Newtons, ...)
If the header above contains a line with 'inDegrees', this indicates whether rotational values are in degrees (yes) or radians (no).

endheader
time	pelvis_tilt	pelvis_list	pelvis_rotation	pelvis_tx	pelvis_ty	pelvis_tz	hip_flexion_r	hip_adduction_r	hip_rotation_r	knee_angle_r	ankle_angle_r	subtalar_angle_r	mtp_angle_r	hip_flexion_l	hip_adduction_l	hip_rotation_l	knee_angle_l	ankle_angle_l	subtalar_angle_l	mtp_angle_l	lumbar_extension	lumbar_bending	lumbar_rotation	arm_flex_r	arm_add_r	arm_rot_r	elbow_flex_r	pro_sup_r	arm_flex_l	arm_add_l	arm_rot_l	elbow_flex_l	pro_sup_l
      7.28333330	      1.14390519	      9.81373814	     -6.35626623	      0.08847289	      0.91017381	     -0.00160454	      9.61030121	      1.03304837	      4.81237284	     20.42072886	      9.63741195	    -14.62013552	      0.00000000	     33.10294990	      3.13939875	      1.42950500	     16.97625083	     -4.61617429	     -8.95569775	      0.00000000	     -4.01158858	     -2.11744551	      4.07925711	     63.46982342	      2.40721615	     55.32685973	    117.34085828	     90.29485546	     80.19027283	      4.29327962	     70.73123436	    111.88802386	     71.34895484
      7.30000000	      1.17655853	      9.71987848	     -6.48445285	      0.08688161	      0.90822840	     -0.00013324	     10.84802377	      1.39753024	      5.11849917	     22.98052409	     10.46038920	    -14.62970724	      0.00000000	     34.27798799	      2.77993019	      1.34584474	     16.10666594	     -5.21804426	     -8.64412465	      0.00000000	     -4.96436426	     -2.04985425	      3.64359145	     63.92853077	      2.24657433	     55.12849413	    116.69091685	     90.30116746	     81.08337147	      4.10839360	     70.99630701	    111.80617524	     71.34222439
      7.31666670	      1.13412855	      9.77160027	     -6.52195954	      0.08407992	      0.90418573	     -0.00086010	     11.92812893	      1.70637964	      5.36687025	     25.54929014	     10.70176212	    -13.83926897	      0.00000000	     35.50943166	      2.59226575	      1.06529848	     15.27544152	     -5.62407246	     -8.30991462	      0.00000000	     -5.68284033	     -2.05992357	      3.52089185	     64.34514079	      2.23957824	     55.48312287	    115.86989480	     90.35373132	     81.81657993	      3.80670589	     71.71559380	    112.18605063	     71.34175681
      7.33333330	      1.09521129	     10.07628955	     -6.55599051	      0.08071245	      0.89828308	     -0.00185753	     13.18095703	      1.66398268	      5.63831575	     27.87421369	     11.61966607	    -13.39257106	      0.00000000	     36.83567572	      2.58851041	      0.45249149	     14.69258396	     -6.69778495	     -8.10479310	      0.00000000	     -6.50966511	     -2.38033345	      3.25563472	     64.91139382	      2.34252927	     55.54441738	    115.64109880	     90.40908907	     82.59304246	      3.63355526	     72.12557064	    112.65923722	     71.32972360
      7.35000000	      1.26397947	     10.23432126	     -6.64285353	      0.07882951	      0.89367161	     -0.00241841	     14.29473444	      1.65254955	      5.80086004	     30.42202357	     12.64046137	    -12.75944779	      0.00000000	     37.92498963	      2.46577926	     -0.23913395	     14.37415818	     -7.45420066	     -8.10102622	      0.00000000	     -7.66702700	     -2.54944772	      2.96853076	     65.73270441	      2.56053160	     56.14599979	    116.98008406	     90.55737438	     83.62780014	      3.58026604	     72.65239849	    113.29391765	     71.38299226
      7.36666670	      1.63477544	     10.39081325	     -6.98834956	      0.07513189	      0.88911511	     -0.00297532	     15.35429796	      1.58005655	      6.08637523	     32.85443382	     13.92823435	    -12.49753580	      0.00000000	     38.71625700	      2.28627033	     -0.83910829	     13.76195324	     -7.98080220	     -7.85418588	      0.00000000	     -9.05917442	     -2.83931238	      2.69231791	     66.80801130	      2.70738788	     56.82161735	    117.83026191	     90.78405685	     84.77593224	      3.74162815	     73.22873070	    113.77166489	     71.45306179
      7.38333330	      1.94813478	     10.33940468	     -7.53819552	      0.07269073	      0.88220666	     -0.00378841	     16.68657448	      1.75903483	      6.34486387	     35.61554233	     14.52622754	    -12.29394116	      0.00000000	     39.50387539	      1.86689509	     -1.42631333	     12.95737979	     -8.29003068	     -7.83553023	      0.00000000	    -10.54975468	     -3.02057752	      2.12624815	     67.92690629	      3.03693511	     56.74373860	    117.48896000	     90.90263551	     85.99686413	      3.40951108	     73.29133902	    113.27834050	     71.44689830
      7.40000000	      2.29463874	     10.28710262	     -8.03653333	      0.06976537	      0.87627670	     -0.00425365	     18.39220339	      1.90956338	      6.60873990	     38.68187644	     16.47095054	    -11.51745195	      0.00000000	     40.23716673	      1.38114261	     -2.16241094	     12.22971563	     -8.31818309	     -7.93231921	      0.00000000	    -12.01837984	     -3.06489922	      2.06223580	     68.61158757	      3.12422083	     57.97893861	    117.51255015	     91.33357800	     86.89117285	      2.50054263	     73.55359722	    113.22698662	     71.41884500
      7.41666670	      2.58114652	      9.88076906	     -8.15732403	      0.06485801	      0.87492360	     -0.00430619	     19.84119001	      2.42761689	      6.78620217	     40.95200764	     18.60858067	    -11.82705466	      0.00000000	     41.01369095	      0.81601578	     -2.30387506	     11.69596500	     -8.13269556	     -7.99154534	      0.00000000	    -13.68727910	     -2.64626878	      1.88941130	     69.04571669	      2.98134178	     58.58394132	    117.27206092	     91.51678452	     87.74520797	      1.97694482	     73.36874511	    112.84024323	     71.39856045
      7.43333330	      3.08079718	      9.55536121	     -8.28603011	      0.06190621	      0.87099003	     -0.00474312	     21.05148884	      2.60481944	      6.31822887	     43.08870806	     21.13683333	    -10.75154623	      0.00000000	     41.15980961	      0.34655301	     -2.76458087	     10.61544983	     -8.24251775	     -7.82610003	      0.00000000	    -15.57020308	     -2.07367327	      1.99761471	     70.00495068	      2.92768483	     60.69722419	    116.17656006	     92.09213017	     88.38459741	      1.33365894	     73.59428315	    112.41363697	     71.38284116
      7.45000000	      3.07039674	      9.62722239	     -7.82409919	      0.06559781	      0.85713819	     -0.00666296	     22.72326011	      2.37543501	      5.71948087	     45.95726075	     22.31741732	    -10.58615792	      0.00000000	     41.76254268	      0.53547417	     -3.58689016	      9.34164539	     -8.47148428	     -8.17635911	      0.00000000	    -16.94988549	     -1.93529708	      1.53101189	     70.80221687	      2.96765187	     61.80402237	    115.87908245	     92.49311959	     89.53359724	      1.23011889	     73.45983089	    113.05613809	     71.47819569
      7.46666670	      3.00671106	      9.57334946	     -7.30957549	      0.06142061	      0.85023550	     -0.00743999	     24.24393204	      2.43261439	      5.31480422	     48.44283358	     23.86621258	    -10.12437489	      0.00000000	     42.30900327	      0.66706529	     -4.32319991	      7.84607105	     -8.69598173	     -8.06042470	      0.00000000	    -18.24419586	     -1.61317528	      1.41457034	     71.92796663	      2.63394013	     63.70472033	    116.18575745	     92.95546742	     90.66064652	      1.48201299	     73.66049489	    114.64030938	     71.71886527
      7.48333330	      3.15706715	      9.26579210	     -7.15591765	      0.05415063	      0.84563912	     -0.00959826	     25.82203066	      2.78031149	      5.06175570	     51.10647853	     25.13922049	     -9.99356220	      0.00000000	     42.81810332	      0.59853929	     -4.82313035	      6.67438174	     -8.87434711	     -7.68856122	      0.00000000	    -19.67863230	     -1.02075392	      1.56515002	     72.78505394	      2.31214344	     64.83395437	    115.98371637	     93.34755667	     91.42078193	      1.23904751	     73.30420665	    115.00203583	     71.88879358
      7.50000000	      3.21918440	      9.29537136	     -6.72921281	      0.05427099	      0.83565844	     -0.01017459	     27.23065470	      2.79542156	      4.84068301	     53.64011884	     26.32710582	     -9.54443298	      0.00000000	     43.16426628	      0.92946955	     -5.23052391	      5.69563580	     -9.09788232	     -7.23574998	      0.00000000	    -20.72629371	     -0.82469593	      1.19374186	     73.21348413	      2.07785815	     66.04303738	    116.20961339	     93.76712495	     91.69476230	      0.99985508	     73.27930498	    115.34812963	     72.10062728
      7.51666670	      3.07382983	      9.41923245	     -6.49434744	      0.04989585	      0.82650161	     -0.01136502	     29.04348520	      2.98876598	      4.92548681	     56.06714314	     27.17222744	    -10.01947011	      0.00000000	     43.84358214	      1.21685614	     -5.59522197	      5.00500245	     -9.34747902	     -7.32634282	      0.00000000	    -21.79438236	     -0.75757545	      1.09759259	     73.99365484	      1.96863193	     66.72812846	    116.43613910	     94.09711972	     92.34884999	      0.93962892	     73.10848896	    116.15254047	     72.31305718
      7.53333330	      3.14825809	      9.28068958	     -6.40658820	      0.04524290	      0.81935724	     -0.01134223	     30.48367111	      3.60825487	      5.09758258	     58.33029855	     28.88867808	    -10.20461022	      0.00000000	     44.34618996	      1.20592154	     -5.46811733	      4.37344186	     -8.80760724	     -6.85530591	      0.00000000	    -23.00529128	     -0.36504040	      1.25427144	     75.07732776	      1.82183418	     67.51424550	    116.86566045	     94.46852824	     93.03628034	      0.98768800	     73.10792923	    117.55369999	     72.63478954
      7.55000000	      3.00060650	      9.14971508	     -6.25382704	      0.04234064	      0.81289413	     -0.01246183	     32.21150708	      4.22816887	      5.28284003	     60.65496868	     30.44943651	    -10.54409127	      0.00000000	     44.96617204	      1.11638265	     -5.07750771	      3.75274324	     -8.60548785	     -5.86355801	      0.00000000	    -24.21331606	      0.21375537	      1.74014966	     76.51010676	      1.63774409	     68.72724039	    118.01564453	     94.89583759	     93.82866028	      2.09959455	     73.24953751	    119.52326455	     73.06576039
      7.56666670	      2.94388317	      9.13437115	     -6.06379586	      0.04165757	      0.80448472	     -0.01306440	     33.58806047	      4.54438670	      5.35761447	     62.74838194	     31.50244492	    -11.19648742	      0.00000000	     45.20367498	      1.14852097	     -4.67013496	      3.17133809	     -8.51552260	     -5.57222238	      0.00000000	    -25.27231541	      0.53998896	      1.59398385	     77.17427309	      1.67759449	     68.56980186	    118.37363377	     94.98325715	     94.17887550	      2.11934109	     73.20503356	    119.61725721	     73.15933257
      7.58333330	      2.58941996	      9.11001240	     -5.98190051	      0.03953179	      0.79547290	     -0.01397244	     35.25515203	      5.05057329	      5.56789642	     64.86844819	     32.43003010	    -11.34162571	      0.00000000	     45.99566004	      1.04047936	     -4.63786242	      3.08866712	     -8.22117442	     -5.56861862	      0.00000000	    -26.11676350	      0.53190499	      1.51482499	     77.78974037	      1.35471419	     68.85253908	    119.28705759	     95.36468534	     94.50143857	      2.37702454	     73.30721772	    120.44885052	     73.48407632
      7.60000000	      2.19744508	      8.77395167	     -6.05416311	      0.03700862	      0.78699945	     -0.01597138	     36.96483904	      5.80992848	      5.68633796	     66.91305305	     33.59524855	    -11.60835768	      0.00000000	     46.62124900	      0.67010206	     -4.11850066	      2.87081805	     -7.54227233	     -5.19192006	      0.00000000	    -26.90459731	      0.96669814	      1.63157075	     78.37662958	      0.95048494	     68.55521649	    119.45142198	     95.65186311	     94.44794701	      2.21501716	     73.23707982	    120.31226554	     73.68438682
